<svg xmlns="http://www.w3.org/2000/svg" height="40" viewBox="0 -960 960 960" width="40"><path d="M289.397-98.104q-27.54 0-46.673-19.35-19.133-19.349-19.133-46.996 0-27.646 19.271-46.855 19.271-19.208 46.807-19.208t46.805 19.35q19.269 19.35 19.269 46.996 0 27.647-19.349 46.855-19.35 19.208-46.997 19.208Zm387.692 0q-27.541 0-46.674-19.35-19.133-19.349-19.133-46.996 0-27.646 19.271-46.855 19.271-19.208 46.808-19.208 27.536 0 46.805 19.35t19.269 46.996q0 27.647-19.35 46.855t-46.996 19.208ZM210.359-790.41h555.002q24.524 0 37.093 21.09 12.57 21.09.775 42.859L678.553-500.597q-9.939 16.827-25.76 26.686-15.821 9.858-34.33 9.858H324l-52.257 96.257q-2.82 4.616-.064 10.001 2.757 5.385 8.527 5.385h463.229v50.255H284.667q-38.512 0-56.397-28.884-17.884-28.885-.269-61.371l61.949-112.36-149.333-314.974H65.284v-50.255H172.77l37.589 79.589Z"/></svg>